<svg width="25" height="24" viewBox="0 0 25 24" fill="none" xmlns="http://www.w3.org/2000/svg">
<path d="M16.8359 5.93457C17.0508 5.93457 17.417 5.96875 17.9346 6.03711C18.4521 6.10547 19.0186 6.30078 19.6338 6.62305C20.2588 6.93555 20.8252 7.45801 21.333 8.19043C21.3037 8.21973 21.1621 8.32715 20.9082 8.5127C20.6543 8.68848 20.3711 8.95215 20.0586 9.30371C19.7461 9.64551 19.4727 10.085 19.2383 10.6221C19.0039 11.1494 18.8867 11.7793 18.8867 12.5117C18.8867 13.3516 19.0332 14.0645 19.3262 14.6504C19.6289 15.2363 19.9756 15.71 20.3662 16.0713C20.7666 16.4229 21.1182 16.6816 21.4209 16.8477C21.7334 17.0137 21.8994 17.1016 21.9189 17.1113C21.9092 17.1504 21.7822 17.4971 21.5381 18.1514C21.3037 18.8057 20.9131 19.5332 20.3662 20.334C19.8877 21.0273 19.3701 21.667 18.8135 22.2529C18.2666 22.8389 17.6074 23.1318 16.8359 23.1318C16.3184 23.1318 15.8936 23.0586 15.5615 22.9121C15.2295 22.7559 14.8877 22.6045 14.5361 22.458C14.1846 22.3018 13.7109 22.2236 13.1152 22.2236C12.5391 22.2236 12.0557 22.3018 11.665 22.458C11.2842 22.6143 10.918 22.7705 10.5664 22.9268C10.2246 23.083 9.81934 23.1611 9.35059 23.1611C8.6377 23.1611 8.0127 22.8779 7.47559 22.3115C6.93848 21.7451 6.38672 21.0664 5.82031 20.2754C5.16602 19.3379 4.60449 18.1953 4.13574 16.8477C3.67676 15.4902 3.44727 14.123 3.44727 12.7461C3.44727 11.2715 3.72559 10.0361 4.28223 9.04004C4.83887 8.03418 5.55176 7.27734 6.4209 6.76953C7.2998 6.25195 8.20801 5.99316 9.14551 5.99316C9.64355 5.99316 10.1123 6.07617 10.5518 6.24219C10.9912 6.39844 11.4014 6.55957 11.7822 6.72559C12.1729 6.8916 12.5244 6.97461 12.8369 6.97461C13.1396 6.97461 13.4912 6.88672 13.8916 6.71094C14.292 6.53516 14.7412 6.36426 15.2393 6.19824C15.7373 6.02246 16.2695 5.93457 16.8359 5.93457ZM16.0303 4.07422C15.6494 4.5332 15.1709 4.91895 14.5947 5.23145C14.0186 5.53418 13.4717 5.68555 12.9541 5.68555C12.8467 5.68555 12.7441 5.67578 12.6465 5.65625C12.6367 5.62695 12.627 5.57324 12.6172 5.49512C12.6074 5.41699 12.6025 5.33398 12.6025 5.24609C12.6025 4.66016 12.7295 4.09375 12.9834 3.54688C13.2373 2.99023 13.5254 2.53125 13.8477 2.16992C14.2578 1.68164 14.7754 1.27637 15.4004 0.954102C16.0254 0.631836 16.6211 0.460937 17.1875 0.441406C17.2168 0.568359 17.2314 0.719727 17.2314 0.895508C17.2314 1.48145 17.1191 2.05273 16.8945 2.60938C16.6699 3.15625 16.3818 3.64453 16.0303 4.07422Z" fill="#1C1D1F"/>
</svg>
