<svg width="108" height="70" viewBox="0 0 108 70" fill="none" xmlns="http://www.w3.org/2000/svg">
<rect x="34" width="40" height="40" rx="10" fill="#28292B"/>
<rect x="34" width="40" height="40" rx="10" fill="url(#paint0_radial_4496_10269)"/>
<path d="M44.73 13.3478V15.5739C45.7271 13.9275 47.2808 13.0696 49.3909 13C49.4837 13 49.588 13 49.7039 13C52.5097 13 54.3996 13.9623 55.3735 15.887C56.5793 14.0319 58.3648 13.0696 60.73 13C60.8692 13 60.9967 13 61.1126 13C63.4315 13 65.0895 13.6377 66.0866 14.913C67.0837 16.1652 67.5822 18.0319 67.5822 20.513V29H63.0953V20.513C63.0953 19.2145 62.8286 18.229 62.2953 17.5565C61.7851 16.8841 61.0663 16.5478 60.1387 16.5478C58.7242 16.5478 57.7155 16.9768 57.1126 17.8348C56.5329 18.6928 56.2431 20.0261 56.2431 21.8348V29H51.7561V20.513C51.7561 19.2145 51.4895 18.229 50.9561 17.5565C50.446 16.8841 49.7271 16.5478 48.7996 16.5478C47.3851 16.5478 46.3764 16.9768 45.7735 17.8348C45.1938 18.6928 44.9039 20.0261 44.9039 21.8348V29H40.417V13.3478H44.73Z" fill="#1C1D1F"/>
<path d="M3.744 54.2V55.736C4.432 54.6 5.504 54.008 6.96 53.96C7.024 53.96 7.096 53.96 7.176 53.96C9.112 53.96 10.416 54.624 11.088 55.952C11.92 54.672 13.152 54.008 14.784 53.96C14.88 53.96 14.968 53.96 15.048 53.96C16.648 53.96 17.792 54.4 18.48 55.28C19.168 56.144 19.512 57.432 19.512 59.144L19.512 65H16.416L16.416 59.144C16.416 58.248 16.232 57.568 15.864 57.104C15.512 56.64 15.016 56.408 14.376 56.408C13.4 56.408 12.704 56.704 12.288 57.296C11.888 57.888 11.688 58.808 11.688 60.056V65H8.592V59.144C8.592 58.248 8.408 57.568 8.04 57.104C7.688 56.64 7.192 56.408 6.552 56.408C5.576 56.408 4.88 56.704 4.464 57.296C4.064 57.888 3.864 58.808 3.864 60.056L3.864 65H0.768L0.768 54.2H3.744ZM20.5883 62.024C20.5883 59.656 23.1563 58.344 28.2923 58.088H28.5083V57.92C28.5083 56.8 27.7883 56.24 26.3483 56.24C25.7403 56.24 25.2603 56.336 24.9083 56.528C24.5723 56.72 24.3803 56.912 24.3323 57.104L24.2603 57.392H21.1163C21.1163 57.296 21.1323 57.176 21.1643 57.032C21.1963 56.872 21.3163 56.6 21.5243 56.216C21.7323 55.816 22.0043 55.464 22.3403 55.16C22.6763 54.856 23.1963 54.584 23.9003 54.344C24.6043 54.088 25.4283 53.96 26.3723 53.96C28.0683 53.96 29.3483 54.312 30.2123 55.016C31.0923 55.704 31.5323 56.664 31.5323 57.896L31.5563 61.04L31.5563 61.64C31.5563 61.928 31.5963 62.128 31.6763 62.24C31.7723 62.352 31.9403 62.408 32.1803 62.408H32.4922V65H32.1562C31.1803 65 30.4363 64.912 29.9243 64.736C29.4123 64.544 29.0443 64.2 28.8203 63.704C27.9723 64.728 26.6363 65.24 24.8123 65.24C23.4043 65.24 22.3483 64.936 21.6443 64.328C20.9403 63.72 20.5883 62.952 20.5883 62.024ZM23.7563 61.952C23.7563 62.272 23.9083 62.52 24.2123 62.696C24.5163 62.872 24.9003 62.968 25.3643 62.984C25.3963 62.984 25.4283 62.984 25.4603 62.984C26.1963 62.984 26.8843 62.776 27.5243 62.36C28.1803 61.944 28.5083 61.36 28.5083 60.608V59.984C27.8683 60.032 27.3483 60.08 26.9483 60.128C26.5643 60.176 26.0843 60.264 25.5083 60.392C24.9323 60.52 24.4923 60.72 24.1883 60.992C23.9003 61.248 23.7563 61.568 23.7563 61.952ZM33.1033 59.624C33.1033 57.944 33.6233 56.584 34.6633 55.544C35.7033 54.504 37.0393 53.984 38.6713 53.984C38.8473 53.984 39.0233 53.992 39.1993 54.008C40.5113 54.072 41.5193 54.608 42.2233 55.616V54.2H45.2473V66.008C45.2473 67.4 44.9673 68.312 44.4073 68.744C43.8633 69.176 42.8473 69.392 41.3593 69.392H34.1353V66.848H41.3593C41.6633 66.848 41.8713 66.784 41.9833 66.656C42.0953 66.544 42.1513 66.328 42.1513 66.008V63.632C41.4793 64.576 40.5113 65.096 39.2473 65.192C39.0233 65.208 38.7993 65.216 38.5753 65.216C36.9913 65.216 35.6793 64.72 34.6393 63.728C33.6153 62.72 33.1033 61.352 33.1033 59.624ZM36.2473 59.624C36.2473 60.632 36.5273 61.408 37.0873 61.952C37.6633 62.496 38.3833 62.768 39.2473 62.768C40.1433 62.768 40.8633 62.496 41.4073 61.952C41.9513 61.408 42.2233 60.624 42.2233 59.6C42.2233 58.496 41.9513 57.696 41.4073 57.2C40.8793 56.688 40.1593 56.432 39.2473 56.432C38.3673 56.432 37.6473 56.712 37.0873 57.272C36.5273 57.816 36.2473 58.6 36.2473 59.624ZM50.3736 54.2V65L47.3016 65V54.2H50.3736ZM46.9656 51.2C46.9656 50.672 47.1416 50.224 47.4936 49.856C47.8616 49.488 48.3016 49.304 48.8136 49.304C49.3416 49.304 49.7896 49.488 50.1576 49.856C50.5256 50.224 50.7096 50.672 50.7096 51.2C50.7096 51.712 50.5256 52.152 50.1576 52.52C49.7896 52.872 49.3416 53.048 48.8136 53.048C48.3176 53.048 47.8856 52.864 47.5176 52.496C47.1496 52.128 46.9656 51.696 46.9656 51.2ZM53.4608 55.472C54.5008 54.464 55.9488 53.96 57.8047 53.96C58.7808 53.96 59.6368 54.096 60.3728 54.368C61.1248 54.624 61.6768 54.944 62.0288 55.328C62.3808 55.696 62.6688 56.072 62.8928 56.456C63.1168 56.84 63.2448 57.16 63.2768 57.416L63.3488 57.824H60.2048C60.1888 57.792 60.1728 57.744 60.1568 57.68C60.1408 57.6 60.0688 57.48 59.9408 57.32C59.8288 57.16 59.6928 57.016 59.5328 56.888C59.3888 56.76 59.1568 56.648 58.8368 56.552C58.5328 56.44 58.1888 56.384 57.8047 56.384C56.8928 56.384 56.1968 56.656 55.7168 57.2C55.2528 57.744 55.0208 58.512 55.0208 59.504C55.0208 60.512 55.2608 61.32 55.7408 61.928C56.2208 62.52 56.9088 62.816 57.8047 62.816C58.4128 62.816 58.9168 62.664 59.3168 62.36C59.7168 62.04 59.9648 61.72 60.0608 61.4L60.2048 60.944L63.3248 60.944C63.3088 61.056 63.2848 61.208 63.2528 61.4C63.2208 61.592 63.0848 61.936 62.8448 62.432C62.6208 62.928 62.3328 63.368 61.9808 63.752C61.6288 64.12 61.0848 64.464 60.3488 64.784C59.6128 65.088 58.7648 65.24 57.8047 65.24C55.9327 65.24 54.4768 64.728 53.4368 63.704C52.3968 62.68 51.8768 61.28 51.8768 59.504C51.8768 57.84 52.4048 56.496 53.4608 55.472ZM67.3768 54.2V55.736C68.0648 54.6 69.1368 54.008 70.5928 53.96C70.6568 53.96 70.7288 53.96 70.8088 53.96C72.7448 53.96 74.0488 54.624 74.7208 55.952C75.5528 54.672 76.7848 54.008 78.4168 53.96C78.5128 53.96 78.6008 53.96 78.6808 53.96C80.2808 53.96 81.4248 54.4 82.1128 55.28C82.8008 56.144 83.1448 57.432 83.1448 59.144V65H80.0488V59.144C80.0488 58.248 79.8648 57.568 79.4968 57.104C79.1448 56.64 78.6488 56.408 78.0088 56.408C77.0328 56.408 76.3368 56.704 75.9208 57.296C75.5208 57.888 75.3208 58.808 75.3208 60.056V65H72.2248V59.144C72.2248 58.248 72.0408 57.568 71.6728 57.104C71.3208 56.64 70.8248 56.408 70.1848 56.408C69.2088 56.408 68.5128 56.704 68.0968 57.296C67.6968 57.888 67.4968 58.808 67.4968 60.056V65H64.4008V54.2H67.3768ZM84.2211 62.024C84.2211 59.656 86.7891 58.344 91.9251 58.088H92.1411V57.92C92.1411 56.8 91.4211 56.24 89.9811 56.24C89.3731 56.24 88.8931 56.336 88.5411 56.528C88.2051 56.72 88.0131 56.912 87.9651 57.104L87.8931 57.392H84.7491C84.7491 57.296 84.7651 57.176 84.7971 57.032C84.8291 56.872 84.9491 56.6 85.1571 56.216C85.3651 55.816 85.6371 55.464 85.9731 55.16C86.3091 54.856 86.8291 54.584 87.5331 54.344C88.2371 54.088 89.0611 53.96 90.0051 53.96C91.7011 53.96 92.9811 54.312 93.8451 55.016C94.7251 55.704 95.1651 56.664 95.1651 57.896L95.1891 61.04V61.64C95.1891 61.928 95.2291 62.128 95.3091 62.24C95.4051 62.352 95.5731 62.408 95.8131 62.408H96.1251V65H95.7891C94.8131 65 94.0691 64.912 93.5571 64.736C93.0451 64.544 92.6771 64.2 92.4531 63.704C91.6051 64.728 90.2691 65.24 88.4451 65.24C87.0371 65.24 85.9811 64.936 85.2771 64.328C84.5731 63.72 84.2211 62.952 84.2211 62.024ZM87.3891 61.952C87.3891 62.272 87.5411 62.52 87.8451 62.696C88.1491 62.872 88.5331 62.968 88.9971 62.984C89.0291 62.984 89.0611 62.984 89.0931 62.984C89.8291 62.984 90.5171 62.776 91.1571 62.36C91.8131 61.944 92.1411 61.36 92.1411 60.608V59.984C91.5011 60.032 90.9811 60.08 90.5811 60.128C90.1971 60.176 89.7171 60.264 89.1411 60.392C88.5651 60.52 88.1251 60.72 87.8211 60.992C87.5331 61.248 87.3891 61.568 87.3891 61.952ZM100.858 54.2V65H97.7859V54.2H100.858ZM97.4499 51.2C97.4499 50.672 97.6259 50.224 97.9779 49.856C98.3459 49.488 98.7859 49.304 99.2979 49.304C99.8259 49.304 100.274 49.488 100.642 49.856C101.01 50.224 101.194 50.672 101.194 51.2C101.194 51.712 101.01 52.152 100.642 52.52C100.274 52.872 99.8259 53.048 99.2979 53.048C98.8019 53.048 98.3699 52.864 98.0019 52.496C97.6339 52.128 97.4499 51.696 97.4499 51.2ZM102.839 49.568H105.935V61.592C105.935 61.896 105.991 62.112 106.103 62.24C106.215 62.352 106.423 62.408 106.727 62.408H107.591V65H106.727C105.239 65 104.215 64.776 103.655 64.328C103.111 63.88 102.839 62.968 102.839 61.592V49.568Z" fill="white"/>
<defs>
<radialGradient id="paint0_radial_4496_10269" cx="0" cy="0" r="1" gradientUnits="userSpaceOnUse" gradientTransform="translate(38.8647 5.5) rotate(45) scale(41.0122)">
<stop offset="0.0132422" stop-color="#C5F04D"/>
<stop offset="0.51996" stop-color="#FFCC00"/>
<stop offset="1" stop-color="#FF60B7"/>
</radialGradient>
</defs>
</svg>
