<svg width="48" height="48" viewBox="0 0 48 48" fill="none" xmlns="http://www.w3.org/2000/svg">
<path d="M32 7.87104C29.5901 6.67341 26.8737 6 24 6C14.0589 6 6 14.0589 6 24C6 33.9411 14.0589 42 24 42C33.9411 42 42 33.9411 42 24C42 23.324 41.9627 22.6567 41.8901 22M42 10L24 28L18 22" stroke="#FAFAFA" stroke-width="2" stroke-linecap="round" stroke-linejoin="round"/>
<path d="M32 7.87104C29.5901 6.67341 26.8737 6 24 6C14.0589 6 6 14.0589 6 24C6 33.9411 14.0589 42 24 42C33.9411 42 42 33.9411 42 24C42 23.324 41.9627 22.6567 41.8901 22M42 10L24 28L18 22" stroke="url(#paint0_radial_4513_12111)" stroke-width="2" stroke-linecap="round" stroke-linejoin="round"/>
<defs>
<radialGradient id="paint0_radial_4513_12111" cx="0" cy="0" r="1" gradientUnits="userSpaceOnUse" gradientTransform="translate(8.05855 7.6875) rotate(45) scale(40.0455 38.4562)">
<stop offset="0.0132422" stop-color="#C5F04D"/>
<stop offset="0.523889" stop-color="#FFCC00"/>
<stop offset="1" stop-color="#FF60B7"/>
</radialGradient>
</defs>
</svg>
