<svg width="18" height="18" viewBox="0 0 18 18" fill="none" xmlns="http://www.w3.org/2000/svg">
<path d="M5.60589 2.39411C6.79394 1.20606 7.38796 0.612036 8.07295 0.389471C8.67548 0.193697 9.32452 0.193697 9.92705 0.389471C10.612 0.612036 11.2061 1.20606 12.3941 2.39411L15.6059 5.60589C16.7939 6.79394 17.388 7.38796 17.6105 8.07295C17.8063 8.67548 17.8063 9.32452 17.6105 9.92705C17.388 10.612 16.7939 11.2061 15.6059 12.3941L12.3941 15.6059C11.2061 16.7939 10.612 17.388 9.92705 17.6105C9.32452 17.8063 8.67548 17.8063 8.07295 17.6105C7.38796 17.388 6.79394 16.7939 5.60589 15.6059L2.39411 12.3941C1.20606 11.2061 0.612036 10.612 0.389471 9.92705C0.193697 9.32452 0.193697 8.67548 0.389471 8.07295C0.612036 7.38796 1.20606 6.79394 2.39411 5.60589L5.60589 2.39411Z" fill="url(#paint0_radial_4493_9569)"/>
<defs>
<radialGradient id="paint0_radial_4493_9569" cx="0" cy="0" r="1" gradientUnits="userSpaceOnUse" gradientTransform="translate(4.5102 3.69388) rotate(45) scale(13.5649)">
<stop offset="0.0132422" stop-color="#C5F04D"/>
<stop offset="0.51996" stop-color="#FFCC00"/>
<stop offset="1" stop-color="#FF60B7"/>
</radialGradient>
</defs>
</svg>
