<svg width="64" height="64" viewBox="0 0 64 64" fill="none" xmlns="http://www.w3.org/2000/svg">
<path fill-rule="evenodd" clip-rule="evenodd" d="M14.1645 28.6973C21.9468 14.8991 25.8379 8 31.9999 8C38.1619 8 42.0531 14.8991 49.8353 28.6973L50.8051 30.4167C57.2721 41.8829 60.5057 47.6161 57.5832 51.808C54.6608 56 47.4304 56 32.9697 56H31.0301C16.5694 56 9.33904 56 6.4166 51.808C3.49416 47.6161 6.72768 41.8829 13.1947 30.4167L14.1645 28.6973ZM31.9999 19.3333C33.1045 19.3333 33.9999 20.2288 33.9999 21.3333V34.6667C33.9999 35.7712 33.1045 36.6667 31.9999 36.6667C30.8954 36.6667 29.9999 35.7712 29.9999 34.6667V21.3333C29.9999 20.2288 30.8954 19.3333 31.9999 19.3333ZM31.9999 45.3333C33.4727 45.3333 34.6666 44.1394 34.6666 42.6667C34.6666 41.1939 33.4727 40 31.9999 40C30.5272 40 29.3333 41.1939 29.3333 42.6667C29.3333 44.1394 30.5272 45.3333 31.9999 45.3333Z" fill="#FF5656"/>
</svg>
