<svg width="16" height="16" viewBox="0 0 16 16" fill="none" xmlns="http://www.w3.org/2000/svg">
<path d="M5.00016 12.6666V12.6666C4.07969 12.6666 3.3335 11.9204 3.3335 10.9999V10.9999C3.3335 10.0794 4.07969 9.33325 5.00016 9.33325H11.0002C11.9206 9.33325 12.6668 10.0794 12.6668 10.9999V10.9999C12.6668 11.9204 11.9206 12.6666 11.0002 12.6666V12.6666C10.0797 12.6666 9.3335 11.9204 9.3335 10.9999V4.99992C9.3335 4.07944 10.0797 3.33325 11.0002 3.33325V3.33325C11.9206 3.33325 12.6668 4.07944 12.6668 4.99992V4.99992C12.6668 5.92039 11.9206 6.66659 11.0002 6.66659H5.00016C4.07969 6.66659 3.3335 5.92039 3.3335 4.99992V4.99992C3.3335 4.07944 4.07969 3.33325 5.00016 3.33325V3.33325C5.92064 3.33325 6.66683 4.07944 6.66683 4.99992V10.9999C6.66683 11.9204 5.92064 12.6666 5.00016 12.6666Z" stroke="#FAFAFA" stroke-linecap="round" stroke-linejoin="round"/>
</svg>
