<svg width="40" height="40" viewBox="0 0 40 40" fill="none" xmlns="http://www.w3.org/2000/svg">
<rect width="40" height="40" rx="10" fill="#28292B"/>
<rect width="40" height="40" rx="10" fill="url(#paint0_radial_4496_10373)"/>
<path d="M10.7305 13.3478V15.5739C11.7276 13.9275 13.2812 13.0696 15.3914 13C15.4841 13 15.5885 13 15.7044 13C18.5102 13 20.4001 13.9623 21.374 15.887C22.5798 14.0319 24.3653 13.0696 26.7305 13C26.8697 13 26.9972 13 27.1131 13C29.432 13 31.0899 13.6377 32.087 14.913C33.0841 16.1652 33.5827 18.0319 33.5827 20.513V29H29.0957V20.513C29.0957 19.2145 28.8291 18.229 28.2957 17.5565C27.7856 16.8841 27.0668 16.5478 26.1392 16.5478C24.7247 16.5478 23.716 16.9768 23.1131 17.8348C22.5334 18.6928 22.2436 20.0261 22.2436 21.8348V29H17.7566V20.513C17.7566 19.2145 17.4899 18.229 16.9566 17.5565C16.4465 16.8841 15.7276 16.5478 14.8001 16.5478C13.3856 16.5478 12.3769 16.9768 11.774 17.8348C11.1943 18.6928 10.9044 20.0261 10.9044 21.8348V29H6.41748V13.3478H10.7305Z" fill="#1C1D1F"/>
<defs>
<radialGradient id="paint0_radial_4496_10373" cx="0" cy="0" r="1" gradientUnits="userSpaceOnUse" gradientTransform="translate(4.8647 5.5) rotate(45) scale(41.0122)">
<stop offset="0.0132422" stop-color="#C5F04D"/>
<stop offset="0.51996" stop-color="#FFCC00"/>
<stop offset="1" stop-color="#FF60B7"/>
</radialGradient>
</defs>
</svg>
