<svg width="28" height="143" viewBox="0 0 28 143" fill="none" xmlns="http://www.w3.org/2000/svg">
<g opacity="0.1">
<path d="M7.1 139.008L9.148 139.008C7.63333 138.091 6.844 136.661 6.78 134.72C6.78 134.635 6.78 134.539 6.78 134.432C6.78 131.851 7.66533 130.112 9.436 129.216C7.72933 128.107 6.844 126.464 6.78 124.288C6.78 124.16 6.78 124.043 6.78 123.936C6.78 121.803 7.36667 120.277 8.54 119.36C9.692 118.443 11.4093 117.984 13.692 117.984L21.5 117.984L21.5 122.112L13.692 122.112C12.4973 122.112 11.5907 122.357 10.972 122.848C10.3533 123.317 10.044 123.979 10.044 124.832C10.044 126.133 10.4387 127.061 11.228 127.616C12.0173 128.149 13.244 128.416 14.908 128.416L21.5 128.416L21.5 132.544L13.692 132.544C12.4973 132.544 11.5907 132.789 10.972 133.28C10.3533 133.749 10.044 134.411 10.044 135.264C10.044 136.565 10.4387 137.493 11.228 138.048C12.0173 138.581 13.244 138.848 14.908 138.848L21.5 138.848L21.5 142.976L7.1 142.976L7.1 139.008ZM17.532 116.549C14.3747 116.549 12.6253 113.125 12.284 106.277L12.284 105.989L12.06 105.989C10.5667 105.989 9.82 106.949 9.82 108.869C9.82 109.68 9.948 110.32 10.204 110.789C10.46 111.237 10.716 111.493 10.972 111.557L11.356 111.653L11.356 115.845C11.228 115.845 11.068 115.824 10.876 115.781C10.6627 115.738 10.3 115.578 9.788 115.301C9.25466 115.024 8.78533 114.661 8.38 114.213C7.97466 113.765 7.612 113.072 7.292 112.133C6.95066 111.194 6.78 110.096 6.78 108.837C6.78 106.576 7.24933 104.869 8.188 103.717C9.10533 102.544 10.3853 101.957 12.028 101.957L16.22 101.925L17.02 101.925C17.404 101.925 17.6707 101.872 17.82 101.765C17.9693 101.637 18.044 101.413 18.044 101.093L18.044 100.677L21.5 100.677L21.5 101.125C21.5 102.426 21.3827 103.418 21.148 104.101C20.892 104.784 20.4333 105.274 19.772 105.573C21.1373 106.704 21.82 108.485 21.82 110.917C21.82 112.794 21.4147 114.202 20.604 115.141C19.7933 116.08 18.7693 116.549 17.532 116.549ZM17.436 112.325C17.8627 112.325 18.1933 112.122 18.428 111.717C18.6627 111.312 18.7907 110.8 18.812 110.181C18.812 110.138 18.812 110.096 18.812 110.053C18.812 109.072 18.5347 108.154 17.98 107.301C17.4253 106.426 16.6467 105.989 15.644 105.989L14.812 105.989C14.876 106.842 14.94 107.536 15.004 108.069C15.068 108.581 15.1853 109.221 15.356 109.989C15.5267 110.757 15.7933 111.344 16.156 111.749C16.4973 112.133 16.924 112.325 17.436 112.325ZM14.332 99.8622C12.092 99.8622 10.2787 99.1689 8.892 97.7822C7.50533 96.3956 6.812 94.6142 6.812 92.4382C6.812 92.2036 6.82266 91.9689 6.844 91.7342C6.92933 89.9849 7.644 88.6409 8.988 87.7022L7.1 87.7022L7.1 83.6702L22.844 83.6702C24.7 83.6702 25.916 84.0436 26.492 84.7902C27.068 85.5156 27.356 86.8702 27.356 88.8542L27.356 98.4862L23.964 98.4862L23.964 88.8542C23.964 88.4489 23.8787 88.1716 23.708 88.0222C23.5587 87.8729 23.2707 87.7982 22.844 87.7982L19.676 87.7982C20.9347 88.6942 21.628 89.9849 21.756 91.6702C21.7773 91.9689 21.788 92.2676 21.788 92.5662C21.788 94.6782 21.1267 96.4276 19.804 97.8142C18.46 99.1796 16.636 99.8622 14.332 99.8622ZM14.332 95.6702C15.676 95.6702 16.7107 95.2969 17.436 94.5502C18.1613 93.7822 18.524 92.8222 18.524 91.6702C18.524 90.4756 18.1613 89.5156 17.436 88.7902C16.7107 88.0649 15.6653 87.7022 14.3 87.7022C12.828 87.7022 11.7613 88.0649 11.1 88.7902C10.4173 89.4942 10.076 90.4542 10.076 91.6702C10.076 92.8436 10.4493 93.8036 11.196 94.5502C11.9213 95.2969 12.9667 95.6702 14.332 95.6702ZM7.1 76.8352L21.5 76.8352L21.5 80.9312L7.1 80.9312L7.1 76.8352ZM3.1 81.3793C2.396 81.3793 1.79866 81.1446 1.308 80.6753C0.817329 80.1846 0.571996 79.5979 0.571996 78.9153C0.571996 78.2112 0.817329 77.6139 1.308 77.1232C1.79866 76.6326 2.396 76.3873 3.1 76.3873C3.78266 76.3873 4.36933 76.6326 4.86 77.1232C5.32933 77.6139 5.564 78.2112 5.564 78.9152C5.564 79.5766 5.31866 80.1526 4.828 80.6432C4.33733 81.1339 3.76133 81.3793 3.1 81.3793ZM8.796 72.719C7.452 71.3323 6.78 69.4017 6.78 66.927C6.78 65.6257 6.96133 64.4843 7.324 63.503C7.66533 62.5003 8.092 61.7643 8.604 61.295C9.09466 60.8257 9.596 60.4417 10.108 60.143C10.62 59.8443 11.0467 59.6737 11.388 59.631L11.932 59.535L11.932 63.727C11.8893 63.7483 11.8253 63.7697 11.74 63.791C11.6333 63.8123 11.4733 63.9083 11.26 64.079C11.0467 64.2283 10.8547 64.4097 10.684 64.623C10.5133 64.815 10.364 65.1243 10.236 65.551C10.0867 65.9563 10.012 66.415 10.012 66.927C10.012 68.143 10.3747 69.071 11.1 69.711C11.8253 70.3297 12.8493 70.639 14.172 70.639C15.516 70.639 16.5933 70.319 17.404 69.679C18.1933 69.039 18.588 68.1217 18.588 66.927C18.588 66.1163 18.3853 65.4443 17.98 64.911C17.5533 64.3777 17.1267 64.047 16.7 63.919L16.092 63.727L16.092 59.567C16.2413 59.5883 16.444 59.6203 16.7 59.663C16.956 59.7057 17.4147 59.887 18.076 60.207C18.7373 60.5057 19.324 60.8897 19.836 61.359C20.3267 61.8283 20.7853 62.5537 21.212 63.535C21.6173 64.5163 21.82 65.647 21.82 66.927C21.82 69.423 21.1373 71.3643 19.772 72.751C18.4067 74.1377 16.54 74.831 14.172 74.831C11.9533 74.831 10.1613 74.127 8.796 72.719ZM7.1 54.1642L9.148 54.1642C7.63333 53.2469 6.844 51.8176 6.78 49.8762C6.78 49.7909 6.78 49.6949 6.78 49.5882C6.78 47.0069 7.66533 45.2682 9.436 44.3722C7.72933 43.2629 6.844 41.6202 6.78 39.4442C6.78 39.3162 6.78 39.1989 6.78 39.0922C6.78 36.9589 7.36666 35.4336 8.53999 34.5162C9.69199 33.5989 11.4093 33.1402 13.692 33.1402L21.5 33.1402L21.5 37.2682L13.692 37.2682C12.4973 37.2682 11.5907 37.5136 10.972 38.0042C10.3533 38.4736 10.044 39.1349 10.044 39.9882C10.044 41.2896 10.4387 42.2176 11.228 42.7722C12.0173 43.3056 13.244 43.5722 14.908 43.5722L21.5 43.5722L21.5 47.7002L13.692 47.7002C12.4973 47.7002 11.5907 47.9456 10.972 48.4362C10.3533 48.9056 10.044 49.5669 10.044 50.4202C10.044 51.7216 10.4387 52.6496 11.228 53.2042C12.0173 53.7376 13.244 54.0042 14.908 54.0042L21.5 54.0042L21.5 58.1322L7.1 58.1322L7.1 54.1642ZM17.532 31.7052C14.3747 31.7052 12.6253 28.2812 12.284 21.4332L12.284 21.1452L12.06 21.1452C10.5667 21.1452 9.81999 22.1052 9.81999 24.0252C9.81999 24.8359 9.94799 25.4759 10.204 25.9452C10.46 26.3932 10.716 26.6492 10.972 26.7132L11.356 26.8092L11.356 31.0012C11.228 31.0012 11.068 30.9799 10.876 30.9372C10.6627 30.8946 10.3 30.7346 9.78799 30.4572C9.25466 30.1799 8.78533 29.8172 8.37999 29.3692C7.97466 28.9212 7.61199 28.2279 7.29199 27.2892C6.95066 26.3506 6.77999 25.2519 6.77999 23.9932C6.77999 21.7319 7.24933 20.0252 8.18799 18.8732C9.10533 17.6999 10.3853 17.1132 12.028 17.1132L16.22 17.0812L17.02 17.0812C17.404 17.0812 17.6707 17.0279 17.82 16.9212C17.9693 16.7932 18.044 16.5692 18.044 16.2492L18.044 15.8332L21.5 15.8332L21.5 16.2812C21.5 17.5826 21.3827 18.5746 21.148 19.2572C20.892 19.9399 20.4333 20.4306 19.772 20.7292C21.1373 21.8599 21.82 23.6412 21.82 26.0732C21.82 27.9506 21.4147 29.3586 20.604 30.2972C19.7933 31.2359 18.7693 31.7052 17.532 31.7052ZM17.436 27.4812C17.8627 27.4812 18.1933 27.2786 18.428 26.8732C18.6627 26.4679 18.7907 25.9559 18.812 25.3372C18.812 25.2946 18.812 25.2519 18.812 25.2092C18.812 24.2279 18.5347 23.3106 17.98 22.4572C17.4253 21.5826 16.6467 21.1452 15.644 21.1452L14.812 21.1452C14.876 21.9986 14.94 22.6919 15.004 23.2252C15.068 23.7372 15.1853 24.3772 15.356 25.1452C15.5267 25.9132 15.7933 26.4999 16.156 26.9052C16.4973 27.2892 16.924 27.4812 17.436 27.4812ZM7.09999 9.52275L21.5 9.52275L21.5 13.6187L7.09999 13.6187L7.09999 9.52275ZM3.09999 14.0668C2.39599 14.0668 1.79866 13.8321 1.30799 13.3628C0.817326 12.8721 0.571993 12.2854 0.571993 11.6028C0.571993 10.8987 0.817326 10.3014 1.30799 9.81075C1.79866 9.32008 2.39599 9.07475 3.09999 9.07475C3.78266 9.07475 4.36933 9.32008 4.85999 9.81075C5.32933 10.3014 5.56399 10.8987 5.56399 11.6027C5.56399 12.2641 5.31866 12.8401 4.82799 13.3307C4.33733 13.8214 3.76133 14.0668 3.09999 14.0668ZM0.923994 6.8815L0.923994 2.7535L16.956 2.7535C17.3613 2.7535 17.6493 2.67883 17.82 2.5295C17.9693 2.38017 18.044 2.10283 18.044 1.6975L18.044 0.545499L21.5 0.545499L21.5 1.6975C21.5 3.6815 21.2013 5.04683 20.604 5.7935C20.0067 6.51883 18.7907 6.8815 16.956 6.8815L0.923994 6.8815Z" fill="white"/>
</g>
</svg>
