<svg width="240" height="165" viewBox="0 0 240 165" fill="none" xmlns="http://www.w3.org/2000/svg">
<g filter="url(#filter0_i_7897_7278)">
<path d="M6.68621 130.845V134.299C8.23195 131.745 10.6404 130.414 13.9116 130.306C14.0554 130.306 14.2172 130.306 14.3969 130.306C18.7465 130.306 21.6763 131.799 23.186 134.784C25.0553 131.906 27.8233 130.414 31.4899 130.306C31.7056 130.306 31.9033 130.306 32.083 130.306C35.6778 130.306 38.248 131.295 39.7937 133.273C41.3395 135.216 42.1123 138.112 42.1123 141.96V155.126H35.1565V141.96C35.1565 139.946 34.7431 138.417 33.9163 137.374C33.1255 136.331 32.0111 135.809 30.5732 135.809C28.3804 135.809 26.8167 136.475 25.8821 137.806C24.9834 139.137 24.5341 141.205 24.5341 144.011V155.126H17.5783V141.96C17.5783 139.946 17.1649 138.417 16.3381 137.374C15.5472 136.331 14.4329 135.809 12.995 135.809C10.8022 135.809 9.23847 136.475 8.30384 137.806C7.40516 139.137 6.95581 141.205 6.95581 144.011V155.126H0V130.845H6.68621Z" fill="#3D3D3D"/>
<path d="M44.5303 148.435C44.5303 143.112 50.2999 140.162 61.839 139.586H62.3243V139.209C62.3243 136.691 60.7067 135.432 57.4714 135.432C56.1054 135.432 55.027 135.647 54.2361 136.079C53.4812 136.511 53.0499 136.942 52.942 137.374L52.7803 138.022H45.7166C45.7166 137.806 45.7526 137.536 45.8245 137.212C45.8964 136.853 46.166 136.241 46.6333 135.378C47.1006 134.478 47.7117 133.687 48.4666 133.004C49.2215 132.32 50.3898 131.709 51.9715 131.169C53.5531 130.594 55.4044 130.306 57.5253 130.306C61.3357 130.306 64.2115 131.097 66.1527 132.68C68.1298 134.227 69.1183 136.385 69.1183 139.155L69.1723 146.223V147.572C69.1723 148.219 69.2621 148.669 69.4419 148.921C69.6576 149.173 70.035 149.299 70.5742 149.299H71.2752V155.126H70.5203C68.3275 155.126 66.656 154.928 65.5056 154.532C64.3553 154.101 63.5285 153.327 63.0253 152.212C61.1201 154.514 58.1185 155.665 54.0205 155.665C50.8571 155.665 48.4846 154.982 46.9029 153.615C45.3212 152.248 44.5303 150.522 44.5303 148.435ZM51.6479 148.273C51.6479 148.993 51.9894 149.55 52.6724 149.946C53.3554 150.342 54.2182 150.558 55.2606 150.594C55.3325 150.594 55.4044 150.594 55.4763 150.594C57.1299 150.594 58.6756 150.126 60.1135 149.191C61.5874 148.255 62.3243 146.942 62.3243 145.252V143.849C60.8864 143.957 59.7181 144.065 58.8194 144.173C57.9567 144.281 56.8783 144.478 55.5842 144.766C54.2901 145.054 53.3015 145.504 52.6185 146.115C51.9715 146.691 51.6479 147.41 51.6479 148.273Z" fill="#3D3D3D"/>
<path d="M72.6481 143.04C72.6481 139.263 73.8164 136.205 76.1529 133.867C78.4895 131.529 81.4911 130.36 85.1577 130.36C85.5532 130.36 85.9486 130.378 86.344 130.414C89.2917 130.558 91.5564 131.763 93.1381 134.029V130.845H99.9321V157.392C99.9321 160.522 99.303 162.572 98.0449 163.543C96.8227 164.514 94.54 165 91.1969 165H74.9667V159.281H91.1969C91.8799 159.281 92.3472 159.137 92.5989 158.849C92.8505 158.597 92.9763 158.112 92.9763 157.392V152.05C91.4665 154.173 89.2917 155.342 86.4519 155.558C85.9486 155.594 85.4453 155.612 84.9421 155.612C81.3833 155.612 78.4356 154.496 76.099 152.266C73.7984 150 72.6481 146.924 72.6481 143.04ZM79.7117 143.04C79.7117 145.306 80.3408 147.05 81.599 148.273C82.8931 149.496 84.5107 150.108 86.4519 150.108C88.4649 150.108 90.0825 149.496 91.3047 148.273C92.527 147.05 93.1381 145.288 93.1381 142.986C93.1381 140.504 92.527 138.705 91.3047 137.59C90.1185 136.439 88.5008 135.863 86.4519 135.863C84.4747 135.863 82.8571 136.493 81.599 137.752C80.3408 138.975 79.7117 140.737 79.7117 143.04Z" fill="#3D3D3D"/>
<path d="M111.449 130.845V155.126H104.547V130.845H111.449ZM103.793 124.101C103.793 122.914 104.188 121.906 104.979 121.079C105.806 120.252 106.794 119.838 107.944 119.838C109.131 119.838 110.137 120.252 110.964 121.079C111.791 121.906 112.204 122.914 112.204 124.101C112.204 125.252 111.791 126.241 110.964 127.068C110.137 127.86 109.131 128.255 107.944 128.255C106.83 128.255 105.859 127.842 105.033 127.014C104.206 126.187 103.793 125.216 103.793 124.101Z" fill="#3D3D3D"/>
<path d="M118.385 133.705C120.722 131.439 123.975 130.306 128.145 130.306C130.338 130.306 132.261 130.612 133.915 131.223C135.604 131.799 136.844 132.518 137.635 133.381C138.426 134.209 139.073 135.054 139.576 135.917C140.08 136.781 140.367 137.5 140.439 138.076L140.601 138.993H133.537C133.501 138.921 133.465 138.813 133.429 138.669C133.393 138.489 133.232 138.219 132.944 137.86C132.692 137.5 132.387 137.176 132.027 136.888C131.704 136.601 131.183 136.349 130.464 136.133C129.781 135.881 129.008 135.755 128.145 135.755C126.096 135.755 124.532 136.367 123.454 137.59C122.411 138.813 121.89 140.54 121.89 142.77C121.89 145.036 122.429 146.853 123.508 148.219C124.586 149.55 126.132 150.216 128.145 150.216C129.511 150.216 130.643 149.874 131.542 149.191C132.441 148.471 132.998 147.752 133.214 147.032L133.537 146.007H140.547C140.511 146.259 140.457 146.601 140.385 147.032C140.313 147.464 140.008 148.237 139.468 149.353C138.965 150.468 138.318 151.457 137.527 152.32C136.736 153.147 135.514 153.921 133.861 154.64C132.207 155.324 130.302 155.665 128.145 155.665C123.939 155.665 120.668 154.514 118.331 152.212C115.995 149.91 114.827 146.763 114.827 142.77C114.827 139.029 116.013 136.007 118.385 133.705Z" fill="#3D3D3D"/>
<path d="M149.651 130.845V134.299C151.196 131.745 153.605 130.414 156.876 130.306C157.02 130.306 157.182 130.306 157.361 130.306C161.711 130.306 164.641 131.799 166.151 134.784C168.02 131.906 170.788 130.414 174.454 130.306C174.67 130.306 174.868 130.306 175.047 130.306C178.642 130.306 181.212 131.295 182.758 133.273C184.304 135.216 185.077 138.112 185.077 141.96V155.126H178.121V141.96C178.121 139.946 177.708 138.417 176.881 137.374C176.09 136.331 174.976 135.809 173.538 135.809C171.345 135.809 169.781 136.475 168.847 137.806C167.948 139.137 167.499 141.205 167.499 144.011V155.126H160.543V141.96C160.543 139.946 160.129 138.417 159.303 137.374C158.512 136.331 157.397 135.809 155.959 135.809C153.767 135.809 152.203 136.475 151.268 137.806C150.37 139.137 149.92 141.205 149.92 144.011V155.126H142.964V130.845H149.651Z" fill="#3D3D3D"/>
<path d="M187.495 148.435C187.495 143.112 193.264 140.162 204.803 139.586H205.289V139.209C205.289 136.691 203.671 135.432 200.436 135.432C199.07 135.432 197.991 135.647 197.201 136.079C196.446 136.511 196.014 136.942 195.906 137.374L195.745 138.022H188.681C188.681 137.806 188.717 137.536 188.789 137.212C188.861 136.853 189.13 136.241 189.598 135.378C190.065 134.478 190.676 133.687 191.431 133.004C192.186 132.32 193.354 131.709 194.936 131.169C196.518 130.594 198.369 130.306 200.49 130.306C204.3 130.306 207.176 131.097 209.117 132.68C211.094 134.227 212.083 136.385 212.083 139.155L212.137 146.223V147.572C212.137 148.219 212.227 148.669 212.406 148.921C212.622 149.173 212.999 149.299 213.539 149.299H214.24V155.126H213.485C211.292 155.126 209.62 154.928 208.47 154.532C207.32 154.101 206.493 153.327 205.99 152.212C204.085 154.514 201.083 155.665 196.985 155.665C193.822 155.665 191.449 154.982 189.867 153.615C188.286 152.248 187.495 150.522 187.495 148.435ZM194.612 148.273C194.612 148.993 194.954 149.55 195.637 149.946C196.32 150.342 197.183 150.558 198.225 150.594C198.297 150.594 198.369 150.594 198.441 150.594C200.094 150.594 201.64 150.126 203.078 149.191C204.552 148.255 205.289 146.942 205.289 145.252V143.849C203.851 143.957 202.683 144.065 201.784 144.173C200.921 144.281 199.843 144.478 198.549 144.766C197.255 145.054 196.266 145.504 195.583 146.115C194.936 146.691 194.612 147.41 194.612 148.273Z" fill="#3D3D3D"/>
<path d="M224.873 130.845V155.126H217.971V130.845H224.873ZM217.216 124.101C217.216 122.914 217.612 121.906 218.403 121.079C219.229 120.252 220.218 119.838 221.368 119.838C222.554 119.838 223.561 120.252 224.388 121.079C225.215 121.906 225.628 122.914 225.628 124.101C225.628 125.252 225.215 126.241 224.388 127.068C223.561 127.86 222.554 128.255 221.368 128.255C220.254 128.255 219.283 127.842 218.456 127.014C217.63 126.187 217.216 125.216 217.216 124.101Z" fill="#3D3D3D"/>
<path d="M229.324 120.432H236.279V147.464C236.279 148.147 236.405 148.633 236.657 148.921C236.909 149.173 237.376 149.299 238.059 149.299H240V155.126H238.059C234.716 155.126 232.415 154.622 231.157 153.615C229.935 152.608 229.324 150.558 229.324 147.464V120.432Z" fill="#3D3D3D"/>
<path fill-rule="evenodd" clip-rule="evenodd" d="M77.1115 12.2754C74.6627 17.0846 74.6627 23.3801 74.6627 35.9712V53.9568C74.6627 66.5479 74.6627 72.8435 77.1115 77.6527C79.2655 81.8829 82.7025 85.3222 86.9299 87.4777C91.7359 89.9281 98.0273 89.9281 110.61 89.9281H128.584C141.166 89.9281 147.458 89.9281 152.264 87.4777C156.491 85.3222 159.928 81.8829 162.082 77.6527C164.531 72.8435 164.531 66.5479 164.531 53.9568V35.9712C164.531 23.3801 164.531 17.0846 162.082 12.2754C159.928 8.04513 156.491 4.60582 152.264 2.45039C147.458 0 141.166 0 128.584 0H110.61C98.0273 0 91.7359 0 86.9299 2.45039C82.7025 4.60582 79.2655 8.04513 77.1115 12.2754ZM99.1531 32.7651V27.7604H89.6408V62.9496H99.5366V46.8408C99.5366 42.7745 100.176 39.7769 101.454 37.848C102.784 35.9191 105.009 34.9546 108.128 34.9546C110.174 34.9546 111.759 35.7106 112.885 37.2224C114.061 38.7342 114.649 40.9498 114.649 43.8693V62.9496H124.545V46.8408C124.545 42.7745 125.184 39.7769 126.463 37.848C127.792 35.9191 130.017 34.9546 133.137 34.9546C135.182 34.9546 136.768 35.7106 137.893 37.2224C139.069 38.7342 139.657 40.9498 139.657 43.8693V62.9496H149.553V43.8693C149.553 38.2911 148.453 34.0945 146.254 31.2793C144.055 28.4121 140.399 26.9784 135.285 26.9784H134.441C129.224 27.1348 125.286 29.2983 122.627 33.4689C120.479 29.1419 116.311 26.9784 110.123 26.9784H109.433C104.779 27.1348 101.352 29.0637 99.1531 32.7651Z" fill="#3D3D3D"/>
</g>
<defs>
<filter id="filter0_i_7897_7278" x="0" y="0" width="240" height="165" filterUnits="userSpaceOnUse" color-interpolation-filters="sRGB">
<feFlood flood-opacity="0" result="BackgroundImageFix"/>
<feBlend mode="normal" in="SourceGraphic" in2="BackgroundImageFix" result="shape"/>
<feColorMatrix in="SourceAlpha" type="matrix" values="0 0 0 0 0 0 0 0 0 0 0 0 0 0 0 0 0 0 127 0" result="hardAlpha"/>
<feOffset dy="1"/>
<feComposite in2="hardAlpha" operator="arithmetic" k2="-1" k3="1"/>
<feColorMatrix type="matrix" values="0 0 0 0 0.109804 0 0 0 0 0.113725 0 0 0 0 0.121569 0 0 0 1 0"/>
<feBlend mode="normal" in2="shape" result="effect1_innerShadow_7897_7278"/>
</filter>
</defs>
</svg>
