<svg width="24" height="25" viewBox="0 0 24 25" fill="none" xmlns="http://www.w3.org/2000/svg">
<path d="M7.45284 3.40798C7.8276 2.45776 9.1724 2.45776 9.54716 3.40798L10.7085 6.35263C10.8229 6.64274 11.0526 6.87238 11.3427 6.9868L14.2873 8.14815C15.2376 8.52291 15.2376 9.86771 14.2873 10.2425L11.3427 11.4038C11.0526 11.5182 10.8229 11.7479 10.7085 12.038L9.54716 14.9826C9.1724 15.9329 7.8276 15.9329 7.45284 14.9826L6.29148 12.038C6.17707 11.7479 5.94743 11.5182 5.65732 11.4038L2.71266 10.2425C1.76244 9.86771 1.76245 8.52291 2.71267 8.14815L5.65732 6.9868C5.94743 6.87238 6.17707 6.64274 6.29148 6.35263L7.45284 3.40798Z" fill="#FAFAFA"/>
<path d="M16.9245 14.087C17.1305 13.5648 17.8695 13.5648 18.0755 14.087L18.9761 16.3707C19.039 16.5301 19.1652 16.6563 19.3247 16.7192L21.6084 17.6198C22.1305 17.8258 22.1305 18.5648 21.6084 18.7708L19.3247 19.6715C19.1652 19.7343 19.039 19.8605 18.9761 20.02L18.0755 22.3037C17.8695 22.8259 17.1305 22.8259 16.9245 22.3037L16.0239 20.02C15.961 19.8605 15.8348 19.7343 15.6753 19.6715L13.3916 18.7708C12.8695 18.5648 12.8695 17.8258 13.3916 17.6198L15.6753 16.7192C15.8348 16.6563 15.961 16.5301 16.0239 16.3707L16.9245 14.087Z" fill="#FAFAFA"/>
</svg>
