<svg width="50" height="50" viewBox="0 0 50 50" fill="none" xmlns="http://www.w3.org/2000/svg">
<g opacity="0.3">
<path d="M37.5 38.9757C36.4234 34.1146 32.3659 31.25 25.0002 31.25C17.6346 31.25 13.5766 34.1146 12.5 38.9757M25 43.75C35.3553 43.75 43.75 35.3553 43.75 25C43.75 14.6447 35.3553 6.25 25 6.25C14.6447 6.25 6.25 14.6447 6.25 25C6.25 35.3553 14.6447 43.75 25 43.75ZM25 25C27.7778 25 29.1667 23.5119 29.1667 19.7917C29.1667 16.0714 27.7778 14.5833 25 14.5833C22.2222 14.5833 20.8333 16.0714 20.8333 19.7917C20.8333 23.5119 22.2222 25 25 25Z" stroke="#FAFAFA" stroke-width="2" stroke-linecap="round" stroke-linejoin="round"/>
</g>
</svg>
